<svg width="750" height="940" viewBox="0 0 750 940" fill="none" xmlns="http://www.w3.org/2000/svg">
<g opacity="0.15">
<path d="M-155.115 -388.95C-16.2438 -388.95 122.627 -388.95 261.515 -388.95C264.619 -385.215 267.01 -380.218 270.961 -377.96C286.018 -369.427 300.993 -360.246 317.079 -354.154C342.563 -344.492 368.71 -336.075 396.517 -335.892C405.914 -335.826 412.056 -341.736 412.438 -351.132C412.621 -355.498 412.04 -359.931 411.641 -364.314C410.894 -372.531 410.047 -380.749 409.234 -388.95C434.684 -388.95 460.134 -388.95 485.584 -388.95C487.244 -385.912 488.356 -382.343 490.647 -379.919C503.381 -366.455 518.654 -356.395 535.919 -350.036C554.015 -343.379 572.509 -338.15 592.414 -340.358C616.619 -343.031 638.051 -353.008 659.251 -363.832C673.18 -370.938 687.656 -371.07 701.934 -366.721C721.573 -360.744 737.477 -348.144 753.066 -335.195C775.445 -316.601 794.071 -294.87 806.971 -268.789C831.724 -218.703 834.695 -165.346 828.387 -111.026C825.88 -89.4108 821.016 -68.078 818.044 -46.4961C815.305 -26.7404 821.879 -8.14683 844.39 0.519113C870.156 10.4468 897.299 10.6128 924.193 12.6713C935.466 13.5346 946.771 13.8667 957.994 15.0952C979.144 17.4028 999.68 14.8129 1015.72 0.519113C1031.26 -13.3265 1045.85 -28.7658 1058.32 -45.417C1093.18 -91.984 1133.59 -133.471 1173.81 -175.207C1184.52 -186.313 1195.38 -197.486 1204.62 -209.788C1236.88 -252.702 1273.85 -291.367 1310.58 -330.331C1326.7 -347.447 1340.51 -366.488 1348.73 -388.95C1353.71 -388.95 1358.69 -388.95 1363.67 -388.95C1363.67 -365.16 1363.67 -341.371 1363.67 -317.581C1361.57 -316.319 1359.28 -315.323 1357.44 -313.762C1348.61 -306.275 1340.11 -298.373 1331.11 -291.085C1300.7 -266.448 1275.36 -236.981 1250.13 -207.331C1235.3 -189.899 1219.95 -172.75 1203.38 -157.012C1179.12 -133.969 1154.54 -111.358 1134.7 -84.2478C1116.62 -59.5614 1103.47 -32.5841 1101.66 -1.50626C1099.85 29.4554 1110.53 57.2462 1126.35 83.1112C1155.68 131.056 1190.61 174.934 1227.45 217.201C1259.58 254.056 1287.75 293.318 1309.35 337.229C1317.28 353.349 1325.68 369.253 1333.4 385.489C1339.56 398.422 1345.14 411.62 1350.75 424.802C1355.17 435.194 1352.74 445.072 1346.58 453.788C1340.56 462.337 1334.15 470.738 1326.93 478.258C1306.89 499.143 1289.87 522.103 1276.94 548.001C1259.69 582.515 1247.34 618.756 1238.34 656.275C1231.24 685.859 1229.26 715.575 1238.61 744.595C1254.01 792.44 1270.95 839.804 1287.33 887.334C1293.26 904.549 1299.49 921.649 1305.58 938.798C1292.84 938.798 1280.13 938.798 1267.39 938.798C1257.95 914.975 1249.9 890.455 1238.71 867.478C1221.89 832.898 1197.27 803.746 1169.73 776.951C1161.89 769.331 1155.09 760.35 1149.13 751.136C1138.25 734.352 1132.03 715.891 1133.29 695.504C1134.72 672.329 1146.89 654.416 1162.17 638.329C1184.97 614.34 1205.57 588.541 1219.08 558.327C1234.86 523.065 1249.28 487.107 1262.38 450.766C1274.92 415.97 1272.31 380.741 1259.11 346.277C1244.3 307.662 1218.62 277.547 1185.78 253.242C1154.09 229.785 1126.53 202.044 1099.92 173.124C1084.85 156.738 1069.67 140.054 1052.39 126.159C1018.81 99.1647 994.932 100.144 961.962 117.576C931.614 133.629 912.157 159.943 899.059 191.02C887.288 218.977 880.797 248.212 878.357 278.543C875.684 311.68 885.33 337.81 917.486 348.385C936.645 354.677 955.819 360.986 974.712 368.075C1000.28 377.67 1020.3 393.524 1027.02 421.448C1035.42 456.311 1034.24 491.074 1022.56 525.124C1017.51 539.833 1008.01 551.072 992.857 556.584C982.78 560.253 972.653 560.402 961.962 558.991C932.992 555.173 908.173 542.871 886.525 523.812C872.032 511.046 863.133 494.262 857.09 476.382C851.263 459.15 846.449 441.436 842.913 423.59C836.538 391.499 820.335 368.705 788.593 357.234C768.107 349.83 748.052 340.948 728.479 331.385C700.141 317.54 677.563 297.137 664.713 267.669C648.145 229.619 645.123 189.742 650.851 149.085C653.507 130.243 657.658 111.599 661.011 92.8562C664.78 71.6728 653.092 55.9346 631.942 52.4815C608.534 48.6466 587.4 54.9551 568.01 67.0576C549.035 78.911 531.288 92.6902 512.428 104.743C479.724 125.627 444.861 140.021 404.835 137.248C393.097 136.435 383.95 129.462 382.987 118.572C382.423 112.296 382.29 105.706 383.585 99.5964C387.237 82.3143 391.47 65.1484 395.936 48.0656C405.167 12.7709 415.078 -22.2746 429.903 -55.8261C440.826 -80.5788 450.439 -105.83 451.136 -133.67C451.866 -162.855 444.645 -189.401 428.043 -213.291C404.137 -247.689 370.852 -269.038 331.041 -280.028C303.998 -287.499 276.887 -287.947 251.653 -272.674C234.72 -262.431 224.261 -246.228 214.582 -229.859C194.345 -195.627 175.519 -160.564 155.033 -126.482C136.971 -96.4 112.6 -71.5311 85.9379 -48.9033C65.3356 -31.4054 43.8699 -14.804 24.3798 3.85599C0.55681 26.6663 -19.7135 52.6144 -33.9907 82.6961C-45.0141 105.905 -55.6556 129.296 -66.5129 152.588C-75.1457 171.115 -90.3858 181.823 -109.843 185.077C-127.988 188.115 -146.548 189.128 -164.959 190.207C-187.205 191.502 -195.473 202.077 -189.529 223.443C-185.379 238.401 -177.41 251.383 -166.669 262.39C-135.708 294.148 -81.8194 296.655 -44.4994 267.902C-24.5777 252.545 -2.51446 242.817 22.1884 238.268C52.3864 232.707 82.2524 225.867 110.724 213.831C133.866 204.036 157.241 194.723 180.5 185.21C217.371 170.136 255.555 165.155 295.016 170.451C313.494 172.925 326.326 187.899 328.086 206.526C329.946 226.282 331.207 246.353 335.955 265.494C345.401 303.545 357.421 340.948 367.697 378.816C376.064 409.661 385.378 440.49 381.078 473.211C379.086 488.402 374.255 502.065 362.949 513.105C347.593 528.079 328.617 536.048 308.596 541.991C288.724 547.901 268.537 552.732 248.798 559.024C227.15 565.93 210.947 580.291 198.96 599.349C183.073 624.6 168.397 650.647 151.563 675.217C118.178 723.943 72.9556 758.191 18.6523 781.284C-9.25465 793.154 -36.9292 805.904 -63.5413 820.413C-98.5038 839.455 -113.296 872.276 -107.336 910.941C-105.908 920.205 -104.846 929.518 -103.6 938.815C-122.958 938.815 -142.332 938.815 -161.689 938.815C-162.104 934.996 -162.536 931.162 -162.951 927.327C-165.308 904.881 -169.359 882.453 -169.508 859.991C-169.658 837.762 -163.449 815.765 -144.457 801.853C-129.034 790.547 -111.934 780.935 -94.4199 773.149C-52.0199 754.323 -8.50754 737.987 33.6933 718.746C68.8551 702.709 97.3929 677.492 116.983 643.974C138.083 607.882 143.644 570.296 116.269 534.57C94.139 505.717 74.3169 475.702 58.8942 442.748C56.1384 436.871 51.5065 431.774 47.2898 426.711C31.4188 407.636 9.65442 399.468 -13.6208 394.039C-39.9506 387.913 -66.4631 385.622 -93.3242 389.474C-110.806 391.981 -124.419 399.767 -132.172 416.567C-140.671 434.995 -138.43 455.016 -141.767 474.191C-146.482 501.318 -149.802 528.859 -156.825 555.388C-168.794 600.561 -192.053 641.151 -212.954 682.588C-224.973 706.428 -241.226 726.914 -264.883 740.278C-280.522 749.094 -296.808 756.747 -312.563 765.363C-337 778.711 -358.698 795.461 -375.864 817.724C-403.405 853.45 -413.117 894.705 -413.947 938.798C-477.016 938.798 -540.102 938.798 -603.17 938.798C-613.38 914.427 -620.602 889.143 -622.826 862.863C-626.296 821.758 -635.925 782.38 -651.331 744.147C-663.185 714.762 -672.465 684.348 -669.261 652.208C-666.77 627.306 -663.052 602.337 -657.474 577.95C-647.662 535.035 -644.491 492.585 -654.95 449.206C-658.221 435.609 -657.922 420.601 -656.411 406.54C-653.855 382.684 -642.151 361.932 -629.102 342.243C-614.725 320.528 -599.136 299.693 -576.044 286.246C-555.342 274.21 -533.61 270.823 -514.237 287.226C-503.828 296.024 -495.51 308.177 -488.704 320.213C-470.957 351.606 -447.266 375.562 -410.677 381.372C-391.336 384.444 -371.049 383.962 -351.426 382.368C-325.611 380.26 -301.157 371.926 -278.779 358.462C-253.777 343.421 -249.112 326.372 -258.176 299.145C-264.286 280.768 -273.665 263.137 -288.64 250.37C-307.914 233.952 -328.151 218.496 -348.903 203.969C-369.588 189.493 -387.535 172.659 -400.932 151.36C-416.969 125.876 -432.342 99.9616 -447.864 74.163C-472.849 32.6096 -503.628 -3.46525 -545.713 -28.633C-569.187 -42.6612 -593.525 -55.2783 -616.601 -69.9373C-634.016 -80.9939 -651.53 -92.6647 -666.306 -106.859C-689.913 -129.536 -700.073 -158.954 -699.293 -191.692C-698.878 -209.041 -697.998 -226.439 -696.072 -243.671C-689.747 -300.415 -668.912 -349.406 -619.871 -382.907C-617.763 -384.352 -616.452 -386.941 -614.758 -389C-580.46 -389 -546.145 -389 -511.846 -389C-514.22 -386.477 -516.212 -383.339 -519.034 -381.546C-540.483 -367.933 -562.53 -355.2 -583.548 -340.939C-603.121 -327.674 -619.158 -310.691 -631.243 -289.989C-643.744 -268.59 -650.534 -245.68 -653.506 -221.209C-657.806 -185.583 -648.941 -154.439 -623.839 -128.408C-603.868 -107.706 -579.414 -92.9967 -555.242 -78.0056C-524.911 -59.1962 -494.215 -40.7188 -470.774 -13.1771C-457.028 2.95952 -444.892 20.4906 -432.226 37.5237C-417.567 57.2296 -404.269 78.0975 -388.331 96.6911C-355.544 134.974 -312.795 154.979 -262.858 160.208C-245.211 162.051 -232.261 150.961 -233.673 133.779C-235.914 106.868 -239.201 80.0565 -241.525 53.1456C-243.982 24.6077 -246.19 -3.97988 -247.767 -32.5841C-248.614 -48.0234 -247.385 -63.5624 -248.033 -79.0183C-249.245 -107.838 -238.636 -131.778 -219.578 -152.679C-202.694 -171.223 -189.978 -192.041 -187.139 -217.541C-185.362 -233.411 -184.914 -249.448 -183.071 -265.303C-180.548 -286.901 -178.689 -308.732 -173.908 -329.866C-169.525 -349.937 -161.573 -369.278 -155.115 -388.95ZM148.774 -239.554C150.634 -268.474 137.402 -290.222 114.891 -305.877C98.4388 -317.332 80.4761 -326.927 62.3307 -335.577C27.5507 -352.161 -8.78978 -364.729 -46.7904 -371.635C-63.2756 -374.623 -80.0597 -372.863 -93.2412 -361.608C-120.717 -338.15 -130.146 -307.072 -125.614 -272.126C-122.742 -250.013 -117.396 -228.182 -112.715 -206.318C-106.722 -178.311 -112.034 -152.961 -130.279 -130.865C-140.273 -118.745 -150.832 -107.008 -161.988 -95.9684C-203.375 -54.9961 -209.235 0.402887 -188.069 51.087C-182.889 63.5049 -174.771 74.2128 -163.747 82.0653C-133.616 103.514 -104.929 90.2166 -82.9151 66.709C-63.8899 46.3888 -47.2055 23.7777 -27.4166 4.28762C-5.45292 -17.344 18.4698 -37.0831 42.2928 -56.7392C70.9634 -80.4294 98.6712 -104.833 117.215 -137.738C135.061 -169.413 147.313 -202.865 148.774 -239.554ZM-636.44 659.33C-638.316 690.906 -625.881 719.527 -612.218 747.782C-600.913 771.157 -588.943 794.216 -578.185 817.84C-567.112 842.161 -559.459 868.176 -541.795 889.11C-531.319 901.528 -509.323 914.178 -490.829 897.876C-482.677 890.704 -475.954 881.739 -469.33 873.04C-451.965 850.213 -436.376 825.875 -417.55 804.343C-390.921 773.88 -358.781 749.21 -325.346 726.549C-289.935 702.543 -258.907 674.371 -237.275 636.984C-226.219 617.86 -214.73 598.884 -205.351 578.929C-191.588 549.628 -183.702 518.981 -188.135 485.828C-192.7 451.596 -214.515 426.379 -247.452 419.888C-267.888 415.87 -288.059 419.589 -308.296 421.913C-335.124 424.984 -361.985 430.529 -388.78 430.28C-421.717 429.965 -454.604 424.735 -487.525 421.714C-501.769 420.402 -516.179 417.431 -530.24 418.51C-556.371 420.535 -569.503 440.291 -578.003 461.723C-594.488 503.31 -609.446 545.527 -624.105 587.811C-632.007 610.538 -637.486 633.996 -636.44 659.33ZM590.256 -9.62436C614.444 -10.9359 642.301 -11.7494 670.042 -14.1566C690.96 -15.9661 710.516 -23.1213 727.533 -35.7716C744.632 -48.4883 757.764 -64.7577 768.123 -83.3015C793.059 -127.943 802.555 -174.659 784.592 -224.032C772.224 -258.048 749.214 -281.755 711.762 -285.922C696.206 -287.648 679.704 -286.237 664.298 -283.017C626.065 -275.048 588.114 -271.03 549.416 -279.514C529.212 -283.946 508.743 -287.167 488.323 -290.603C472.187 -293.326 462.707 -284.145 466.26 -269.154C468.601 -259.227 471.307 -249.282 474.909 -239.753C489.303 -201.653 496.69 -162.308 497.221 -121.601C497.537 -98.1431 498.068 -74.6853 498.931 -51.2441C499.795 -28.1682 513.773 -13.8245 536.915 -12.1976C553.45 -11.0521 570.002 -10.5872 590.256 -9.62436ZM259.24 498.578C270.114 497.018 281.237 496.42 291.812 493.697C314.755 487.787 331.489 473.294 335.424 449.82C338.23 433.086 337.848 414.907 334.528 398.239C324.832 349.481 301.358 306.566 273.185 266.125C263.158 251.748 250.342 240.277 233.176 235.496C218.318 231.362 203.161 232.491 188.186 236.392C158.802 244.045 133.518 259.119 112.567 280.602C85.307 308.558 83.3647 356.968 110.093 389.324C131.841 415.654 156.494 439.577 179.819 464.612C201.251 487.621 227.631 498.545 259.24 498.578ZM852.409 163.528C852.409 161.32 852.409 159.112 852.409 156.888C852.342 117.924 825.133 91.2293 786.169 90.532C754.46 89.9676 732.298 106.104 714.335 129.662C700.854 147.342 693.533 167.878 690.661 189.941C685.299 231.196 701.817 277.198 746.259 296.506C763.558 304.01 781.62 306.101 799.633 300.822C816.367 295.908 825.149 281.946 831.342 266.806C844.872 233.769 850.533 199.006 852.409 163.528ZM970.163 460.976C971.989 446.865 963.954 437.17 953.727 428.952C944.248 421.332 927.663 420.386 918.516 426.196C910.53 431.26 905.749 444.225 907.775 454.883C909.767 465.359 915.162 473.66 922.948 480.831C932.411 489.547 944.929 493.083 954.806 488.186C965.647 482.79 971.391 473.909 970.163 460.976Z" stroke="white" stroke-width="2" stroke-miterlimit="10"/>
<path d="M-103.667 938.798C-104.895 929.501 -105.974 920.188 -107.402 910.924C-113.345 872.26 -98.5702 839.439 -63.6076 820.397C-36.9955 805.904 -9.32094 793.154 18.586 781.267C72.8727 758.158 118.112 723.926 151.497 675.201C168.331 650.614 183.006 624.566 198.894 599.332C210.88 580.274 227.1 565.897 248.732 559.007C268.471 552.715 288.658 547.868 308.53 541.974C328.534 536.031 347.527 528.062 362.883 513.088C374.205 502.048 379.019 488.385 381.012 473.195C385.311 440.473 375.998 409.644 367.631 378.799C357.371 340.931 345.335 303.528 335.889 265.478C331.141 246.336 329.863 226.265 328.02 206.509C326.277 187.883 313.444 172.908 294.95 170.435C255.488 165.155 217.288 170.119 180.433 185.193C157.158 194.706 133.8 204.019 110.658 213.814C82.2027 225.867 52.3202 232.706 22.1222 238.251C-2.58074 242.8 -24.6441 252.529 -44.5658 267.885C-81.8858 296.639 -135.774 294.132 -166.736 262.373C-177.46 251.366 -185.429 238.384 -189.596 223.426C-195.539 202.06 -187.272 191.485 -165.026 190.19C-146.598 189.128 -128.054 188.115 -109.909 185.06C-90.4521 181.79 -75.2286 171.099 -66.5793 152.571C-55.7219 129.28 -45.0804 105.888 -34.0571 82.6795C-19.7799 52.6143 0.490482 26.6497 24.3135 3.83935C43.8036 -14.8206 65.2693 -31.4221 85.8716 -48.92C112.533 -71.5477 136.904 -96.4166 154.967 -126.498C175.436 -160.581 194.279 -195.643 214.516 -229.875C224.195 -246.261 234.653 -262.447 251.587 -272.691C276.821 -287.964 303.931 -287.516 330.975 -280.045C370.785 -269.038 404.071 -247.705 427.977 -213.307C444.578 -189.418 451.8 -162.872 451.07 -133.687C450.372 -105.846 440.777 -80.5955 429.836 -55.8428C415.011 -22.2913 405.1 12.7543 395.87 48.0489C391.404 65.1318 387.171 82.2976 383.518 99.5797C382.224 105.689 382.356 112.28 382.921 118.555C383.884 129.446 393.048 136.418 404.768 137.232C444.794 140.004 479.641 125.611 512.362 104.726C531.221 92.6901 548.968 78.8944 567.944 67.041C587.334 54.9385 608.468 48.63 631.876 52.4649C653.026 55.9346 664.713 71.6561 660.945 92.8395C657.608 111.599 653.441 130.226 650.785 149.069C645.057 189.725 648.079 229.602 664.647 267.653C677.48 297.12 700.058 317.523 728.413 331.369C748.003 340.931 768.041 349.83 788.527 357.217C820.269 368.689 836.472 391.466 842.847 423.573C846.383 441.42 851.197 459.133 857.024 476.366C863.067 494.245 871.965 511.029 886.459 523.796C908.09 542.854 932.909 555.156 961.895 558.974C972.587 560.385 982.714 560.236 992.791 556.567C1007.95 551.039 1017.43 539.816 1022.49 525.107C1034.18 491.074 1035.37 456.311 1026.96 421.431C1020.23 393.524 1000.21 377.653 974.645 368.058C955.769 360.969 936.595 354.677 917.42 348.369C885.28 337.794 875.618 311.663 878.291 278.526C880.748 248.212 887.222 218.961 898.993 191.004C912.074 159.926 931.548 133.613 961.895 117.559C994.866 100.111 1018.76 99.1481 1052.32 126.142C1069.61 140.021 1084.76 156.722 1099.85 173.107C1126.47 202.027 1154.02 229.768 1185.72 253.226C1218.57 277.53 1244.25 307.645 1259.04 346.26C1272.26 380.725 1274.87 415.953 1262.31 450.75C1249.22 487.09 1234.79 523.049 1219.02 558.31C1205.52 588.508 1184.92 614.323 1162.11 638.312C1146.82 654.399 1134.65 672.312 1133.22 695.488C1131.96 715.874 1138.19 734.335 1149.06 751.119C1155.04 760.333 1161.83 769.298 1169.66 776.934C1197.2 803.729 1221.81 832.881 1238.64 867.462C1249.83 890.455 1257.88 914.958 1267.33 938.781C1255.71 938.781 1244.09 938.781 1232.47 938.781C1222.52 910.526 1208.86 884.113 1186.31 864.141C1166.97 847.009 1145.62 832.117 1124.74 816.794C1104.85 802.202 1087.2 785.833 1077.21 762.69C1070.09 746.205 1062.1 730.002 1056.46 713.019C1042.53 671.1 1015.62 642.064 975.309 624.085C945.277 610.688 916.241 595.066 886.558 580.888C850.251 563.54 827.357 536.014 818.708 496.32C815.023 479.37 809.71 462.669 803.866 446.317C797.392 428.255 788.693 410.724 772.158 399.866C750.991 385.971 729.309 372.59 706.831 360.986C666.357 340.085 635.76 310.849 620.205 267.237C612.502 245.639 604.849 224.007 596.598 202.625C587.185 178.221 567.927 167.729 542.377 173.29C502.6 181.923 465.48 197.661 430.55 218.247C400.452 235.994 387.768 263.95 389.661 297.917C390.69 316.261 393.911 334.755 398.592 352.552C406.694 383.265 416.97 413.396 425.819 443.91C431.978 465.193 436.228 486.824 431.928 509.17C425.769 541.161 405.233 560.701 375.998 571.492C351.146 580.672 325.563 587.877 300.461 596.427C271.193 606.388 246.457 623.056 228.66 648.655C207.062 679.733 186.128 711.276 164.845 742.553C147.413 768.169 125.599 788.804 97.144 801.87C69.0212 814.785 40.4833 826.888 12.9416 840.966C-11.6617 853.533 -32.9448 870.699 -39.6351 899.436C-42.6068 912.203 -42.6068 925.65 -43.9681 938.781C-63.8234 938.798 -83.7451 938.798 -103.667 938.798ZM72.7399 173.738C94.4545 174.17 114.243 167.994 133.584 160.358C172.133 145.117 210.017 128.084 249.064 114.305C298.154 96.9899 332.403 65.663 351.046 17.1205C365.805 -21.3118 381.061 -59.5781 395.372 -98.1764C403.125 -119.061 407.557 -140.377 401.133 -163.038C388.698 -206.932 337.184 -234.972 293.97 -220.911C272.638 -213.971 257.514 -198.881 244.15 -182.362C221.406 -154.256 200.372 -124.772 178.026 -96.3502C158.187 -71.0995 134.962 -49.0694 110.209 -28.6496C84.6763 -7.58244 58.0808 12.4057 37.2958 38.5861C18.1544 62.708 4.07642 88.9548 5.93577 121.062C6.79905 136.053 13.1076 148.687 24.5626 158.515C38.5908 170.534 55.325 174.12 72.7399 173.738ZM1084.83 476.449C1087.58 490.842 1089.81 509.552 1094.92 527.415C1100.93 548.382 1120.12 556.965 1140.83 550.275C1153.46 546.191 1162.94 537.774 1170.74 527.564C1189.19 503.409 1197.37 475.137 1202.67 445.753C1206.93 422.096 1208.08 398.704 1199.99 375.412C1191.03 349.564 1173.45 333.593 1146.75 328.779C1126.73 325.16 1105.23 330.207 1099.24 357.118C1097.15 366.531 1095.2 376.027 1094.13 385.589C1090.94 414.359 1088.2 443.179 1084.83 476.449ZM990.915 203.505C965.863 203.289 951.652 213.598 942.322 230.781C926.401 260.149 937.541 293.567 968.486 301.619C978.049 304.109 987.843 306.799 997.605 307.097C1010.74 307.512 1024.13 306.566 1036.04 299.594C1047.86 292.671 1052.71 281.415 1050.35 268.101C1047.69 253.06 1041.5 239.712 1032.22 227.743C1020.61 212.752 1005.36 204.501 990.915 203.505Z" stroke="white" stroke-width="2" stroke-miterlimit="10"/>
<path d="M-43.9183 938.798C-42.5736 925.666 -42.557 912.203 -39.5854 899.453C-32.895 870.699 -11.612 853.55 12.9913 840.982C40.5331 826.904 69.0709 814.802 97.1937 801.886C125.649 788.821 147.479 768.185 164.894 742.569C186.194 711.276 207.112 679.75 228.71 648.672C246.507 623.072 271.26 606.404 300.511 596.444C325.613 587.894 351.195 580.689 376.048 571.508C405.283 560.717 425.819 541.177 431.978 509.187C436.278 486.824 432.028 465.209 425.869 443.926C417.02 413.396 406.744 383.281 398.642 352.569C393.961 334.789 390.723 316.278 389.711 297.933C387.818 263.984 400.502 236.01 430.6 218.263C465.546 197.678 502.65 181.939 542.427 173.307C567.977 167.762 587.234 178.254 596.647 202.641C604.898 224.041 612.568 245.656 620.255 267.254C635.794 310.866 666.407 340.101 706.881 361.002C729.359 372.607 751.041 385.987 772.207 399.883C788.742 410.74 797.442 428.271 803.916 446.334C809.776 462.686 815.072 479.387 818.758 496.337C827.407 536.031 850.301 563.556 886.608 580.905C916.291 595.099 945.327 610.704 975.359 624.102C1015.67 642.081 1042.56 671.133 1056.51 713.035C1062.15 730.019 1070.14 746.238 1077.26 762.707C1087.25 785.849 1104.88 802.218 1124.79 816.811C1145.67 832.134 1167.02 847.025 1186.36 864.158C1208.91 884.13 1222.57 910.543 1232.51 938.798C1218.69 938.798 1204.86 938.798 1191.01 938.798C1185.78 931.078 1181.32 922.695 1175.17 915.772C1153.94 891.799 1126.32 879.78 1094.94 877.771C1072.46 876.327 1050.43 880.344 1039.16 903.337C1033.78 914.294 1031.84 926.928 1028.35 938.798C940.38 938.798 852.409 938.798 764.438 938.798C761.45 908.069 746.757 883.632 714.501 876.875C697.086 873.222 679.92 871.977 662.04 873.638C638.466 875.846 615.473 879.73 593.842 889.293C570.782 899.486 551.624 914.261 542.029 938.782C524.332 938.782 506.618 938.782 488.921 938.782C492.457 925.749 494.997 912.335 499.728 899.735C508.876 875.381 525.544 857.634 551.259 851.01C574.485 845.033 598.191 840.966 621.633 835.853C650.735 829.511 680.086 824.099 708.74 816.13C731.152 809.905 749.546 796.109 760.719 775.025C782.865 733.173 785.97 688.399 777.105 642.894C773.668 625.297 762.28 611.219 743.952 605.558C724.379 599.515 704.042 598.353 684.286 603.151C659.932 609.061 635.677 615.934 612.17 624.55C583.217 635.141 556.273 650.116 534.226 672.163C516.429 689.959 505.29 712.338 493.818 734.451C487.991 745.674 481.699 756.946 473.83 766.774C456.316 788.622 431.331 789.717 406.362 787.161C378.953 784.355 351.776 779.458 324.417 776.021C288.492 771.506 253.313 775.025 219.281 787.792C195.59 796.673 175.121 810.702 162.404 832.582C143.478 865.154 136.589 901.578 133.717 938.815C115.455 938.815 97.1937 938.815 78.9487 938.815C77.355 934.764 76.2759 930.381 74.0513 926.696C66.5973 914.344 56.2878 912.003 45.2479 921.267C39.869 925.783 36.6649 932.888 32.4648 938.815C6.98158 938.798 -18.4684 938.798 -43.9183 938.798ZM538.111 590.5C543.29 591.397 548.586 591.397 553.783 590.5C568.857 587.877 584.047 585.636 598.806 581.818C641.621 570.794 684.419 559.588 726.736 546.839C749.065 540.115 764.504 525.008 766.248 499.89C766.746 492.834 766.862 485.596 765.882 478.623C762.944 457.938 753.547 440.473 737.892 426.495C717.489 408.267 693.035 397.144 667.751 388.112C623.508 372.291 586.703 348.07 565.337 304.391C561.984 297.518 557.202 291.11 552.073 285.399C542.311 274.492 530.142 267.752 514.968 268.333C474.029 269.927 445.707 306.367 453.195 346.742C457.826 371.76 469.066 393.674 482.098 414.99C496.375 438.332 504.792 463.284 503.945 491.124C503.314 511.577 503.663 532.063 503.879 552.516C504.095 573.733 514.769 586.831 534.176 589.82L538.111 590.5ZM933.756 812.196C974.712 814.337 987.511 793.004 984.656 768.534C982.365 748.961 976.338 730.201 965.398 713.45C945.842 683.518 921.454 659.579 885.529 650.382C867.699 645.816 852.758 652.158 845.536 669.257C835.044 694.126 831.657 720.108 836.754 747.018C839.642 762.292 844.009 776.702 856.759 786.679C881.943 806.402 912.44 809.108 933.756 812.196ZM390.292 640.471C361.505 641.699 335.324 649.269 314.772 666.883C294.452 684.298 294.12 707.208 320.748 718.215C332.834 723.212 346.032 726.167 359.015 728.176C397.497 734.136 426.284 716.339 434.236 679.766C437.622 664.211 431.181 650.531 416.024 645.584C407.773 642.878 398.891 642.114 390.292 640.471Z" stroke="white" stroke-width="2" stroke-miterlimit="10"/>
<path d="M-414.064 938.798C-413.234 894.705 -403.522 853.45 -375.98 817.724C-358.814 795.461 -337.133 778.711 -312.679 765.363C-296.924 756.747 -280.621 749.11 -264.999 740.278C-241.326 726.931 -225.09 706.445 -213.07 682.588C-192.186 641.151 -168.91 600.561 -156.941 555.388C-149.918 528.859 -146.598 501.317 -141.883 474.191C-138.546 455.016 -140.788 434.995 -132.288 416.567C-124.518 399.75 -110.905 391.981 -93.4404 389.474C-66.5627 385.606 -40.0668 387.913 -13.737 394.039C9.55482 399.451 31.3027 407.636 47.1737 426.711C51.3904 431.791 56.0388 436.871 58.778 442.748C74.2008 475.701 94.0229 505.717 116.153 534.57C143.528 570.296 137.967 607.882 116.866 643.973C97.2767 677.492 68.7389 702.709 33.5771 718.746C-8.62371 737.987 -52.1361 754.307 -94.5361 773.149C-112.051 780.935 -129.133 790.547 -144.573 801.853C-163.565 815.765 -169.774 837.762 -169.624 859.991C-169.475 882.453 -165.424 904.881 -163.067 927.326C-162.668 931.161 -162.237 934.98 -161.805 938.815C-182.822 938.815 -203.856 938.815 -224.874 938.815C-225.986 931.195 -226.899 923.525 -228.261 915.955C-232.693 891.285 -236.03 866.366 -248.249 843.788C-258.874 824.165 -283.543 815.234 -303.747 824.829C-333.198 838.824 -348.04 862.896 -349.185 895.087C-349.7 909.629 -348.256 924.239 -347.708 938.815C-369.788 938.798 -391.934 938.798 -414.064 938.798ZM-137.534 662.982C-136.754 663.165 -135.973 663.347 -135.21 663.547C-138.53 690.341 -119.04 701.232 -97.0263 697.729C-83.4962 695.571 -69.6505 692.782 -57.0999 687.502C-28.3794 675.433 0.291238 663.165 23.1846 640.504C42.7079 621.196 45.5134 599.083 36.2997 575.177C28.2646 554.342 18.3702 534.155 8.29309 514.2C-0.422651 496.918 -12.5085 482.242 -30.853 474.008C-46.8402 466.836 -64.4377 469.177 -75.7101 482.259C-83.4796 491.274 -91.0166 501.633 -94.8017 512.723C-106.024 545.643 -115.653 579.128 -125.282 612.564C-130.047 629.182 -133.483 646.165 -137.534 662.982Z" stroke="white" stroke-width="2" stroke-miterlimit="10"/>
<path d="M133.684 938.798C136.572 901.578 143.445 865.154 162.371 832.566C175.088 810.685 195.557 796.657 219.247 787.775C253.28 775.025 288.459 771.489 324.384 776.005C351.743 779.441 378.92 784.339 406.329 787.144C431.297 789.701 456.282 788.605 473.797 766.758C481.666 756.946 487.958 745.674 493.785 734.435C505.257 712.322 516.396 689.926 534.193 672.146C556.24 650.099 583.2 635.125 612.137 624.533C635.644 615.934 659.915 609.044 684.253 603.134C704.009 598.353 724.346 599.498 743.919 605.541C762.247 611.202 773.652 625.264 777.072 642.878C785.937 688.382 782.849 733.156 760.686 775.009C749.513 796.109 731.136 809.888 708.707 816.114C680.053 824.082 650.685 829.494 621.599 835.836C598.158 840.949 574.435 845.017 551.226 850.993C525.51 857.617 508.826 875.364 499.695 899.718C494.964 912.319 492.424 925.716 488.888 938.765C474.494 938.765 460.117 938.765 445.724 938.765C445.159 924.986 445.176 911.157 443.865 897.461C442.105 878.884 436.809 861.203 421.403 849.217C410.18 840.485 398.31 831.951 385.477 826.041C352.142 810.652 316.797 804.791 280.457 811.847C245.876 818.571 217.156 836.002 195.972 864.557C179.587 886.653 169.393 911.522 165.193 938.765C154.718 938.798 144.209 938.798 133.684 938.798ZM618.312 788.688C629.452 787.642 637.421 787.094 645.339 786.098C684.602 781.134 729.177 754.705 731.717 703.689C733.294 671.947 717.356 649.552 684.685 648.406C660.878 647.576 639.612 656.325 619.574 667.863C595.751 681.609 577.357 700.535 567.545 726.947C558.182 752.115 567.163 775.639 590.488 783.342C600.283 786.596 610.908 787.327 618.312 788.688Z" stroke="white" stroke-width="2" stroke-miterlimit="10"/>
<path d="M1348.71 -388.95C1340.49 -366.488 1326.7 -347.447 1310.56 -330.331C1273.85 -291.35 1236.88 -252.686 1204.61 -209.788C1195.36 -197.486 1184.5 -186.313 1173.8 -175.207C1133.57 -133.471 1093.18 -92.0006 1058.3 -45.4171C1045.83 -28.7658 1031.24 -13.3265 1015.7 0.519087C999.647 14.8129 979.128 17.4193 957.977 15.0951C946.755 13.8666 935.433 13.5346 924.177 12.6713C897.283 10.6127 870.139 10.4467 844.374 0.519087C821.862 -8.16345 815.305 -26.7405 818.027 -46.4961C821.016 -68.078 825.863 -89.4108 828.37 -111.026C834.679 -165.346 831.707 -218.703 806.954 -268.789C794.055 -294.887 775.428 -316.601 753.049 -335.195C737.461 -348.144 721.557 -360.744 701.917 -366.721C687.64 -371.054 673.163 -370.938 659.235 -363.832C638.035 -353.025 616.602 -343.031 592.398 -340.358C572.492 -338.166 553.998 -343.379 535.903 -350.036C518.654 -356.378 503.364 -366.455 490.631 -379.919C488.323 -382.359 487.228 -385.912 485.567 -388.95C586.819 -388.95 688.072 -388.95 789.324 -388.95C789.954 -386.56 790.17 -383.97 791.283 -381.828C799.401 -366.156 807.486 -350.452 815.969 -334.962C835.177 -299.917 850.799 -263.593 859.398 -224.281C866.055 -193.85 873.277 -163.437 882.325 -133.637C888.849 -112.138 902.778 -94.9889 924.326 -85.9909C969.764 -67.0321 1012.88 -71.5311 1051.21 -102.792C1072.71 -120.323 1092.93 -139.746 1111.82 -160.083C1132.43 -182.263 1152.15 -205.538 1169.88 -230.058C1195.96 -266.166 1222.97 -301.228 1254.73 -332.622C1265.85 -343.628 1275.6 -356.146 1285.11 -368.63C1289.66 -374.607 1292.16 -382.127 1295.6 -388.934C1313.3 -388.95 1330.99 -388.95 1348.71 -388.95Z" stroke="white" stroke-width="2" stroke-miterlimit="10"/>
<path d="M165.226 938.798C169.41 911.539 179.603 886.686 196.005 864.59C217.189 836.035 245.909 818.604 280.49 811.88C316.831 804.825 352.158 810.685 385.511 826.075C398.344 832.001 410.197 840.534 421.436 849.25C436.859 861.236 442.138 878.9 443.898 897.494C445.193 911.19 445.176 925.019 445.757 938.798C433.588 938.798 421.419 938.798 409.234 938.798C408.653 934.15 408.304 929.468 407.458 924.87C403.855 905.413 398.659 886.686 384.515 871.695C359.629 845.332 328.003 836.434 293.771 841.68C240.265 849.881 207.709 887.666 193.465 938.798C184.036 938.798 174.639 938.798 165.226 938.798Z" stroke="white" stroke-width="2" stroke-miterlimit="10"/>
<path d="M542.012 938.798C551.608 914.261 570.766 899.502 593.825 889.309C615.457 879.73 638.45 875.862 662.024 873.654C679.904 871.977 697.086 873.239 714.484 876.891C746.741 883.648 761.45 908.085 764.421 938.815C731.783 938.815 699.128 938.815 666.49 938.815C658.836 931.61 639.297 931.61 631.627 938.815C601.761 938.798 571.895 938.798 542.012 938.798Z" stroke="white" stroke-width="2" stroke-miterlimit="10"/>
<path d="M193.449 938.798C207.693 887.666 240.248 849.881 293.755 841.68C327.987 836.434 359.612 845.332 384.498 871.695C398.659 886.686 403.839 905.413 407.441 924.87C408.288 929.468 408.636 934.15 409.217 938.798C397.049 938.798 384.88 938.798 372.694 938.798C367.697 895.518 329.414 864.606 286.865 877.306C255.289 886.736 235.318 907.953 224.975 938.798C214.466 938.798 203.958 938.798 193.449 938.798Z" stroke="white" stroke-width="2" stroke-miterlimit="10"/>
<path d="M224.992 938.798C235.334 907.953 255.306 886.736 286.882 877.307C329.431 864.606 367.731 895.518 372.711 938.798C356.11 938.798 339.508 938.798 322.923 938.798C318.524 928.024 308.546 924.538 298.918 924.521C288.724 924.488 278.116 927.559 273.136 938.798C257.066 938.798 241.029 938.798 224.992 938.798Z" stroke="white" stroke-width="2" stroke-miterlimit="10"/>
<path d="M32.4482 938.798C36.6483 932.871 39.8524 925.766 45.2312 921.25C56.2712 911.987 66.5807 914.328 74.0347 926.679C76.2593 930.365 77.3218 934.731 78.9322 938.798C63.4264 938.798 47.9373 938.798 32.4482 938.798Z" stroke="white" stroke-width="2" stroke-miterlimit="10"/>
<path d="M273.119 938.798C278.099 927.559 288.724 924.488 298.901 924.521C308.53 924.554 318.507 928.024 322.907 938.798C306.322 938.798 289.72 938.798 273.119 938.798Z" stroke="white" stroke-width="2" stroke-miterlimit="10"/>
<path d="M631.643 938.798C639.296 931.593 658.836 931.593 666.506 938.798C654.885 938.798 643.264 938.798 631.643 938.798Z" stroke="white" stroke-width="2" stroke-miterlimit="10"/>
<path d="M148.774 -239.554C147.313 -202.865 135.062 -169.413 117.215 -137.754C98.6546 -104.85 70.9635 -80.446 42.2928 -56.7558C18.4864 -37.0831 -5.4363 -17.3606 -27.4166 4.27101C-47.2055 23.7611 -63.8899 46.3722 -82.9151 66.6923C-104.929 90.1999 -133.616 103.481 -163.747 82.0486C-174.771 74.1962 -182.872 63.4883 -188.068 51.0704C-209.235 0.40286 -203.375 -54.996 -161.988 -95.985C-150.832 -107.025 -140.273 -118.779 -130.279 -130.881C-112.034 -152.978 -106.722 -178.328 -112.715 -206.335C-117.396 -228.199 -122.742 -250.013 -125.614 -272.143C-130.146 -307.089 -120.717 -338.166 -93.2412 -361.624C-80.0597 -372.88 -63.2756 -374.64 -46.7904 -371.652C-8.78976 -364.745 27.5508 -352.178 62.3308 -335.593C80.4761 -326.944 98.4222 -317.332 114.891 -305.893C137.402 -290.205 150.617 -268.457 148.774 -239.554ZM-40.2163 -254.396C-37.9585 -244.783 -35.9165 -235.105 -33.3931 -225.576C-28.3794 -206.65 -22.5856 -187.924 -18.1198 -168.865C-15.2477 -156.564 -14.7829 -143.714 -12.1101 -131.346C-9.45384 -119.028 1.12131 -112.852 12.9913 -116.621C47.2401 -127.494 71.1627 -162.739 70.1998 -199.561C69.0709 -242.808 32.996 -276.027 -4.47341 -283.863C-24.7271 -288.113 -38.9214 -275.479 -40.2163 -254.396Z" stroke="white" stroke-width="2" stroke-miterlimit="10"/>
<path d="M259.24 498.578C227.631 498.545 201.251 487.621 179.819 464.612C156.511 439.577 131.841 415.654 110.093 389.324C83.3647 356.968 85.3071 308.558 112.567 280.602C133.518 259.119 158.802 244.045 188.186 236.392C203.161 232.491 218.318 231.362 233.176 235.496C250.358 240.277 263.175 251.748 273.185 266.125C301.358 306.566 324.832 349.481 334.528 398.239C337.848 414.907 338.23 433.086 335.424 449.82C331.489 473.294 314.772 487.771 291.812 493.697C281.237 496.42 270.114 497.018 259.24 498.578ZM216.757 367.975C219.928 384.46 228.843 400.165 246.474 410.109C252.251 413.363 257.995 413.762 263.507 409.545C269.433 405.029 272.936 399.219 271.044 391.615C266.545 373.47 257.58 358.562 239.8 350.361C227.415 344.65 216.508 351.49 216.757 367.975Z" stroke="white" stroke-width="2" stroke-miterlimit="10"/>
<path d="M852.409 163.528C850.533 199.006 844.888 233.769 831.342 266.806C825.149 281.93 816.367 295.892 799.633 300.822C781.62 306.118 763.558 304.026 746.259 296.506C701.834 277.215 685.316 231.212 690.661 189.941C693.533 167.878 700.854 147.342 714.335 129.662C732.298 106.121 754.477 89.9841 786.169 90.532C825.133 91.2127 852.342 117.908 852.409 156.888C852.409 159.112 852.409 161.32 852.409 163.528ZM782.683 206.343C782.616 193.992 772.224 184.446 763.608 188.314C750.294 194.291 746.99 213.515 758.295 222.596C761.25 224.97 767.526 226.265 770.68 224.738C777.951 221.202 783.496 215.175 782.683 206.343Z" stroke="white" stroke-width="2" stroke-miterlimit="10"/>
<path d="M72.7398 173.738C55.3249 174.12 38.5907 170.534 24.5791 158.515C13.1241 148.703 6.81556 136.07 5.95228 121.062C4.10953 88.9715 18.171 62.708 37.3124 38.5862C58.0974 12.4057 84.6763 -7.58237 110.226 -28.6496C134.979 -49.0693 158.204 -71.0994 178.043 -96.3502C200.388 -124.788 221.422 -154.273 244.166 -182.362C257.53 -198.864 272.654 -213.971 293.987 -220.911C337.217 -234.972 388.715 -206.932 401.149 -163.038C407.574 -140.377 403.125 -119.061 395.388 -98.1763C381.078 -59.578 365.821 -21.3283 351.063 17.1206C332.419 65.6631 298.17 96.99 249.08 114.305C210.033 128.084 172.132 145.118 133.601 160.358C114.26 168.011 94.4711 174.17 72.7398 173.738ZM331.174 -109.266C331.174 -112.038 331.29 -114.794 331.157 -117.567C330.327 -134.5 317.079 -144.976 301.126 -139.63C290.849 -136.194 280.175 -131.346 272.156 -124.29C249.362 -104.269 227.946 -82.6706 205.767 -61.952C187.024 -44.4541 168.132 -27.0724 148.94 -10.056C128.952 7.65773 108.101 24.4086 88.4779 42.4875C77.8198 52.3156 70.814 65.0156 67.942 79.6581C64.5387 97.0398 71.7105 109.541 88.2953 115.169C102.357 119.933 116.186 117.045 128.753 111.649C165.791 95.7781 202.579 79.2596 238.854 61.7119C259.605 51.6847 278.68 37.9885 291.032 18.1C300.412 3.00935 308.098 -13.4759 314.108 -30.2267C323.272 -55.6601 329.099 -82.1393 331.174 -109.266Z" stroke="white" stroke-width="2" stroke-miterlimit="10"/>
<path d="M390.292 640.471C398.891 642.114 407.773 642.878 416.024 645.567C431.181 650.531 437.622 664.194 434.236 679.749C426.284 716.306 397.497 734.103 359.015 728.159C346.032 726.151 332.834 723.195 320.748 718.198C294.12 707.192 294.452 684.282 314.772 666.867C335.324 649.269 361.505 641.716 390.292 640.471Z" stroke="white" stroke-width="2" stroke-miterlimit="10"/>
<path d="M-137.534 662.982C-133.483 646.165 -130.046 629.182 -125.265 612.58C-115.636 579.145 -106.008 545.66 -94.7851 512.739C-91 501.666 -83.4629 491.29 -75.6935 482.276C-64.4211 469.194 -46.8236 466.836 -30.8365 474.025C-12.4919 482.259 -0.422629 496.935 8.30972 514.217C18.3868 534.188 28.2812 554.359 36.3163 575.194C45.5467 599.083 42.7245 621.213 23.2012 640.52C0.291234 663.165 -28.3628 675.45 -57.0833 687.519C-69.634 692.798 -83.4629 695.587 -97.0097 697.746C-119.023 701.248 -138.53 690.375 -135.193 663.563C-135.973 663.347 -136.753 663.165 -137.534 662.982Z" stroke="white" stroke-width="2" stroke-miterlimit="10"/>
<path d="M618.312 788.688C610.908 787.327 600.283 786.596 590.488 783.359C567.163 775.639 558.182 752.132 567.545 726.964C577.373 700.551 595.751 681.626 619.574 667.88C639.595 656.325 660.862 647.593 684.685 648.423C717.356 649.568 733.294 671.964 731.717 703.705C729.177 754.722 684.602 781.151 645.339 786.115C637.42 787.094 629.452 787.626 618.312 788.688Z" stroke="white" stroke-width="2" stroke-miterlimit="10"/>
<path d="M216.757 367.975C216.508 351.49 227.415 344.633 239.8 350.361C257.58 358.562 266.545 373.47 271.044 391.615C272.936 399.219 269.433 405.029 263.507 409.545C257.995 413.745 252.251 413.363 246.474 410.109C228.843 400.165 219.928 384.477 216.757 367.975Z" stroke="white" stroke-width="2" stroke-miterlimit="10"/>
<path d="M782.683 206.343C783.496 215.175 777.952 221.202 770.68 224.738C767.542 226.265 761.251 224.97 758.295 222.596C746.99 213.515 750.277 194.291 763.608 188.314C772.241 184.446 782.617 193.992 782.683 206.343Z" stroke="white" stroke-width="2" stroke-miterlimit="10"/>
<path d="M331.174 -109.266C329.099 -82.1394 323.255 -55.6601 314.124 -30.2101C308.115 -13.4759 300.428 3.0259 291.048 18.1166C278.697 38.0051 259.622 51.7013 238.87 61.7285C202.596 79.2762 165.807 95.7946 128.77 111.666C116.202 117.044 102.373 119.95 88.312 115.185C71.7271 109.557 64.5553 97.0563 67.9586 79.6747C70.8307 65.0322 77.8364 52.3155 88.4946 42.5041C108.117 24.4086 128.969 7.67432 148.957 -10.0394C168.148 -27.0559 187.041 -44.4209 205.784 -61.9354C227.98 -82.654 249.379 -104.252 272.173 -124.274C280.191 -131.313 290.866 -136.177 301.142 -139.613C317.096 -144.959 330.344 -134.484 331.174 -117.55C331.307 -114.794 331.174 -112.022 331.174 -109.266Z" stroke="white" stroke-width="2" stroke-miterlimit="10"/>
</g>
</svg>
